# xmcd
#
# Track frame offsets:
#	150
#	21651
#	42171
#	73298
#	98638
#	129347
#	151318
#	170935
#	194974
#	232604
#
# Disc length: 3403 seconds
#
# Revision: 2
# Processed by: cddbd v1.5.2PL0 Copyright (c) Steve Scherf et al.
# Submitted via: audiograbber 1.83.01
#
DISCID=8c0d490a
DTITLE=Peter Gabriel - The Warm Up Tour - Summer 2007 [Hamburg 19/06/07] [CD 1)
DYEAR=2007
DGENRE=Progressive Rock
TTITLE0=The Rhythm Of The Heat [live]
TTITLE1=On The Air [live]
TTITLE2=Intruder [live]
TTITLE3=D.I.Y. [live]
TTITLE4=Blood Of Eden [live]
TTITLE5=Moribund The Bergermeister [live]
TTITLE6=I Don't Remember [live]
TTITLE7=No Self Control [live]
TTITLE8=Love Town [live]
TTITLE9=Family Snapshot [live]
EXTD=
EXTT0=
EXTT1=
EXTT2=
EXTT3=
EXTT4=
EXTT5=
EXTT6=
EXTT7=
EXTT8=
EXTT9=
PLAYORDER=
